<mxfile host="app.diagrams.net" modified="2024-05-11T19:34:06.239Z" agent="Mozilla/5.0 (Windows NT 10.0; Win64; x64) AppleWebKit/537.36 (KHTML, like Gecko) Chrome/124.0.0.0 Safari/537.36" etag="LSKKlUPasMyLuIWm2PjU" version="24.3.1" type="google">
  <diagram name="Strona-1" id="LZ3eQbppgjH75FxWvlXt">
    <mxGraphModel grid="1" page="1" gridSize="10" guides="1" tooltips="1" connect="1" arrows="1" fold="1" pageScale="1" pageWidth="827" pageHeight="1169" math="0" shadow="0">
      <root>
        <mxCell id="0" />
        <mxCell id="1" parent="0" />
        <mxCell id="2TKhS8RWAgw9lKlFu3Uo-1" value="StorageManager" style="swimlane;fontStyle=1;align=center;verticalAlign=top;childLayout=stackLayout;horizontal=1;startSize=26;horizontalStack=0;resizeParent=1;resizeParentMax=0;resizeLast=0;collapsible=1;marginBottom=0;whiteSpace=wrap;html=1;" vertex="1" parent="1">
          <mxGeometry x="361" y="200" width="280" height="220" as="geometry">
            <mxRectangle x="440" y="300" width="100" height="30" as="alternateBounds" />
          </mxGeometry>
        </mxCell>
        <mxCell id="2TKhS8RWAgw9lKlFu3Uo-2" value="_instance: StorageManager&lt;div&gt;_sentence_lib_path: List[str]&lt;/div&gt;&lt;div&gt;_score_save_path: str&lt;/div&gt;&lt;div&gt;_sentance_cashe: touple[Difiiculty, List[str]]&lt;/div&gt;" style="text;strokeColor=none;fillColor=none;align=left;verticalAlign=top;spacingLeft=4;spacingRight=4;overflow=hidden;rotatable=0;points=[[0,0.5],[1,0.5]];portConstraint=eastwest;whiteSpace=wrap;html=1;" vertex="1" parent="2TKhS8RWAgw9lKlFu3Uo-1">
          <mxGeometry y="26" width="280" height="84" as="geometry" />
        </mxCell>
        <mxCell id="2TKhS8RWAgw9lKlFu3Uo-3" value="" style="line;strokeWidth=1;fillColor=none;align=left;verticalAlign=middle;spacingTop=-1;spacingLeft=3;spacingRight=3;rotatable=0;labelPosition=right;points=[];portConstraint=eastwest;strokeColor=inherit;" vertex="1" parent="2TKhS8RWAgw9lKlFu3Uo-1">
          <mxGeometry y="110" width="280" height="8" as="geometry" />
        </mxCell>
        <mxCell id="2TKhS8RWAgw9lKlFu3Uo-4" value="__new__(cls, *args, **kwargs&lt;span style=&quot;background-color: initial;&quot;&gt;): StorageManager&lt;/span&gt;&lt;br&gt;&lt;div&gt;_init(): void&lt;/div&gt;&lt;div&gt;get_sentence_list(diff: Difficulty): List[str]&lt;/div&gt;&lt;div&gt;save_score(score: List[Score]): bool&lt;/div&gt;&lt;div&gt;load_score(): List[Score]&lt;/div&gt;" style="text;strokeColor=none;fillColor=none;align=left;verticalAlign=top;spacingLeft=4;spacingRight=4;overflow=hidden;rotatable=0;points=[[0,0.5],[1,0.5]];portConstraint=eastwest;whiteSpace=wrap;html=1;" vertex="1" parent="2TKhS8RWAgw9lKlFu3Uo-1">
          <mxGeometry y="118" width="280" height="102" as="geometry" />
        </mxCell>
        <mxCell id="2TKhS8RWAgw9lKlFu3Uo-6" value="Difficulty(Enum)" style="swimlane;fontStyle=0;childLayout=stackLayout;horizontal=1;startSize=26;fillColor=none;horizontalStack=0;resizeParent=1;resizeParentMax=0;resizeLast=0;collapsible=1;marginBottom=0;whiteSpace=wrap;html=1;" vertex="1" parent="1">
          <mxGeometry x="250" y="460" width="140" height="104" as="geometry" />
        </mxCell>
        <mxCell id="2TKhS8RWAgw9lKlFu3Uo-7" value="Easy = 0" style="text;strokeColor=none;fillColor=none;align=left;verticalAlign=top;spacingLeft=4;spacingRight=4;overflow=hidden;rotatable=0;points=[[0,0.5],[1,0.5]];portConstraint=eastwest;whiteSpace=wrap;html=1;" vertex="1" parent="2TKhS8RWAgw9lKlFu3Uo-6">
          <mxGeometry y="26" width="140" height="26" as="geometry" />
        </mxCell>
        <mxCell id="2TKhS8RWAgw9lKlFu3Uo-8" value="Medium = 1" style="text;strokeColor=none;fillColor=none;align=left;verticalAlign=top;spacingLeft=4;spacingRight=4;overflow=hidden;rotatable=0;points=[[0,0.5],[1,0.5]];portConstraint=eastwest;whiteSpace=wrap;html=1;" vertex="1" parent="2TKhS8RWAgw9lKlFu3Uo-6">
          <mxGeometry y="52" width="140" height="26" as="geometry" />
        </mxCell>
        <mxCell id="2TKhS8RWAgw9lKlFu3Uo-9" value="Hard = 2" style="text;strokeColor=none;fillColor=none;align=left;verticalAlign=top;spacingLeft=4;spacingRight=4;overflow=hidden;rotatable=0;points=[[0,0.5],[1,0.5]];portConstraint=eastwest;whiteSpace=wrap;html=1;" vertex="1" parent="2TKhS8RWAgw9lKlFu3Uo-6">
          <mxGeometry y="78" width="140" height="26" as="geometry" />
        </mxCell>
        <mxCell id="2TKhS8RWAgw9lKlFu3Uo-11" value="" style="endArrow=diamondThin;endFill=1;endSize=24;html=1;rounded=0;exitX=0.442;exitY=-0.01;exitDx=0;exitDy=0;exitPerimeter=0;entryX=-0.006;entryY=0.325;entryDx=0;entryDy=0;entryPerimeter=0;" edge="1" parent="1" source="2TKhS8RWAgw9lKlFu3Uo-6" target="2TKhS8RWAgw9lKlFu3Uo-2">
          <mxGeometry width="160" relative="1" as="geometry">
            <mxPoint x="450" y="380" as="sourcePoint" />
            <mxPoint x="610" y="380" as="targetPoint" />
            <Array as="points">
              <mxPoint x="312" y="331" />
              <mxPoint x="312" y="253" />
            </Array>
          </mxGeometry>
        </mxCell>
      </root>
    </mxGraphModel>
  </diagram>
</mxfile>
